<svg width="125" height="122" viewBox="0 0 125 122" fill="none" xmlns="http://www.w3.org/2000/svg">
  <g filter="url(#filter0_d_338_25)">
  <path fill-rule="evenodd" clip-rule="evenodd" d="M54.394 4.99169C60.4431 1.87093 66.8984 2.51218 72.7124 6.25282L106.806 31.3899C111.636 36.1779 113.026 42.5263 111.273 49.1954L96.5884 89.1668C93.5317 95.2373 87.9315 98.5291 81.0273 98.9138L41.3124 98.8283C34.6006 97.8023 29.7271 93.4846 27.2476 87.0506L14.6149 50.9909C11.6438 42.4622 12.4133 35.8146 19.9587 29.6372L54.394 4.99169Z" fill="url(#paint0_linear_338_25)"/>
  <path d="M45.0105 76.6624L49.3069 81.429L77.4151 56.2278L49.9054 30.3853L45.5663 35.1092L67.0696 56.6339L45.0105 76.6624Z" fill="#201600"/>
  </g>
  <defs>
  <filter id="filter0_d_338_25" x="0" y="0" width="125" height="121.914" filterUnits="userSpaceOnUse" color-interpolation-filters="sRGB">
  <feFlood flood-opacity="0" result="BackgroundImageFix"/>
  <feColorMatrix in="SourceAlpha" type="matrix" values="0 0 0 0 0 0 0 0 0 0 0 0 0 0 0 0 0 0 127 0" result="hardAlpha"/>
  <feOffset dy="10"/>
  <feGaussianBlur stdDeviation="6.5"/>
  <feComposite in2="hardAlpha" operator="out"/>
  <feColorMatrix type="matrix" values="0 0 0 0 1 0 0 0 0 0.24 0 0 0 0 0 0 0 0 0.25 0"/>
  <feBlend mode="normal" in2="BackgroundImageFix" result="effect1_dropShadow_338_25"/>
  <feBlend mode="normal" in="SourceGraphic" in2="effect1_dropShadow_338_25" result="shape"/>
  </filter>
  <linearGradient id="paint0_linear_338_25" x1="62.4951" y1="104.386" x2="62.4951" y2="-9.75712" gradientUnits="userSpaceOnUse">
  <stop stop-color="#F3C644"/>
  <stop offset="1" stop-color="#E08B49"/>
  </linearGradient>
  </defs>
</svg>
  